<svg id="Artwork" xmlns="http://www.w3.org/2000/svg" viewBox="0 0 967.58 94.32"><defs><style>.cls-1{fill:#fff;}</style></defs><path class="cls-1" d="M46.32,54.53H18.48L11.8,74.27H0L26.38,1.21H38.63L65,74.27H53ZM21.37,45.41H43.44l-10.89-32h-.3Z"/><path class="cls-1" d="M71.75,21H82.18v8.91h.25C85.32,23.85,91,20.1,99.19,20.1c11.75,0,18.48,7.49,18.48,19.69V74.27h-11V41.92c0-8-3.74-12.4-11.34-12.4S82.69,35,82.69,43.24v31H71.75Z"/><path class="cls-1" d="M189.58,54.53H161.73l-6.68,19.74h-11.8L169.63,1.21h12.25l26.38,73.06h-12Zm-25-9.12h22.07l-10.88-32h-.31Z"/><path class="cls-1" d="M264.45,47.64c0,16.86-8.86,27.54-22.23,27.54-7.64,0-13.72-3.74-16.76-9.67h-.25V91.89H214.28V21h10.58v9.16h.2a18.45,18.45,0,0,1,17-10C255.54,20.15,264.45,30.78,264.45,47.64Zm-11.24,0c0-11.14-5.42-18.27-14.08-18.27-8.35,0-14,7.29-14,18.27s5.57,18.28,14,18.28C247.79,65.92,253.21,58.83,253.21,47.64Z"/><path class="cls-1" d="M322.72,47.64c0,16.86-8.86,27.54-22.22,27.54-7.65,0-13.72-3.74-16.76-9.67h-.26V91.89H272.55V21h10.58v9.16h.2a18.46,18.46,0,0,1,17-10C313.81,20.15,322.72,30.78,322.72,47.64Zm-11.24,0c0-11.14-5.42-18.27-14.07-18.27-8.36,0-14,7.29-14,18.27s5.57,18.28,14,18.28C306.06,65.92,311.48,58.83,311.48,47.64Z"/><path class="cls-1" d="M331,1.21H342V74.27H331Z"/><path class="cls-1" d="M398.45,58.63c-1.52,9.72-10.73,16.66-22.93,16.66-15.65,0-25.12-10.59-25.12-27.4S360,20.05,375.06,20.05c14.78,0,24,10.43,24,26.58v3.75H361.44V51c0,9.27,5.57,15.39,14.33,15.39,6.23,0,10.83-3.13,12.3-7.79Zm-37-15.9h26.63c-.25-8.15-5.41-13.87-13.06-13.87S362.05,34.68,361.49,42.73Z"/><path class="cls-1" d="M493.38,37.77c0,23.24-13.21,37.72-34.22,37.72S424.93,61,424.93,37.77,438.1,0,459.16,0,493.38,14.53,493.38,37.77Zm-56.85,0c0,17,8.76,27.74,22.63,27.74s22.58-10.73,22.58-27.74S473,10,459.16,10,436.53,20.71,436.53,37.77Z"/><path class="cls-1" d="M502.24,21h10.43v9.06h.25c1.77-6.22,6.53-9.92,12.81-9.92a19.25,19.25,0,0,1,3.75.41V30.73a15.79,15.79,0,0,0-4.91-.61c-7,0-11.39,4.71-11.39,12.26V74.27H502.24Z"/><path class="cls-1" d="M536,6.94a6.33,6.33,0,1,1,6.32,6.27A6.28,6.28,0,0,1,536,6.94ZM536.83,21h10.93V74.27H536.83Z"/><path class="cls-1" d="M558.5,78.42h11c1.56,4.46,6.43,7.4,12.65,7.4,8.56,0,13.62-4.86,13.62-12.15V64.91h-.2c-3,5.77-9.27,9.56-16.86,9.56-13.37,0-22.12-10.42-22.12-27s8.7-27.29,22.37-27.29a18.59,18.59,0,0,1,17,10h.21V21h10.63v52.3c0,12.71-9.82,21-25,21C569.18,94.32,559.87,87.64,558.5,78.42Zm37.31-30.93c0-10.94-5.62-18.12-14.17-18.12s-13.88,7-13.88,18.12,5.47,17.92,13.88,17.92S595.81,58.48,595.81,47.49Z"/><path class="cls-1" d="M617.14,6.94a6.33,6.33,0,1,1,6.32,6.27A6.28,6.28,0,0,1,617.14,6.94ZM618,21h10.93V74.27H618Z"/><path class="cls-1" d="M639.81,21h10.43v8.91h.26c2.88-6.07,8.55-9.82,16.75-9.82,11.75,0,18.48,7.49,18.48,19.69V74.27h-11V41.92c0-8-3.75-12.4-11.34-12.4S650.75,35,650.75,43.24v31H639.81Z"/><path class="cls-1" d="M693.42,59.13c0-9.31,7.14-15,19.79-15.74l14.59-.86v-4.1c0-5.93-4-9.47-10.69-9.47-6.32,0-10.27,3-11.24,7.8H695.54c.61-9.62,8.82-16.71,22-16.71,12.91,0,21.16,6.83,21.16,17.52v36.7H728.2V65.51H728c-3.09,5.93-9.82,9.67-16.81,9.67C700.71,75.18,693.42,68.7,693.42,59.13Zm34.38-4.8V50.12l-13.12.81c-6.53.46-10.22,3.34-10.22,7.9s3.84,7.7,9.72,7.7C721.82,66.53,727.8,61.26,727.8,54.33Z"/><path class="cls-1" d="M749.36,1.21H760.3V74.27H749.36Z"/><path class="cls-1" d="M793.66,74.27V1.21h45.62V11H805V34.12h31.39v9.57H805V74.27Z"/><path class="cls-1" d="M846.61,6.94a6.33,6.33,0,1,1,6.33,6.27A6.29,6.29,0,0,1,846.61,6.94ZM847.47,21h10.94V74.27H847.47Z"/><path class="cls-1" d="M870.21,1.21h10.94V74.27H870.21Z"/><path class="cls-1" d="M892.6,21H903v9h.25c2.38-5.92,8-9.87,15.14-9.87,7.39,0,12.76,3.8,14.88,10.43h.25c2.74-6.48,9-10.43,16.61-10.43,10.53,0,17.42,7,17.42,17.57v36.6h-11v-34c0-6.88-3.7-10.83-10.18-10.83s-11,4.81-11,11.54V74.27H924.7V39.49c0-6.13-3.9-10-10.08-10-6.48,0-11.09,5.06-11.09,11.89V74.27H892.6Z"/></svg>