<?xml version="1.0" encoding="utf-8"?>
<!-- Generator: Adobe Illustrator 26.3.1, SVG Export Plug-In . SVG Version: 6.00 Build 0)  -->
<svg version="1.1" id="Layer_1" xmlns="http://www.w3.org/2000/svg" xmlns:xlink="http://www.w3.org/1999/xlink" x="0px" y="0px"
	 viewBox="0 0 2227.1 386" style="enable-background:new 0 0 2227.1 386;" xml:space="preserve">
<style type="text/css">
	.st0{fill:url(#SVGID_1_);}
</style>
<g>
	<path d="M274.3,384.1H171.7V237.9h-66.4v146.3H0V6.8h105.1v140.9h66.4V6.8h102.6L274.3,384.1z M744.9,385.8
		c105.1,0,190.9-87.4,190.9-193.9C935.8,83.6,850,0,744.9,0C638.3,0,584.6,77.3,571.5,108.9c0-46.7-46.7-102.6-100.9-102.6H295.3
		v377.8h163.1c66.4,0,113.1-56.8,113.1-106.5C586.2,308.4,638.6,385.8,744.9,385.8z M445.3,232.5c15.2,0,27.3,14.7,27.3,31.5
		c0,17.5-12.2,32.5-27.3,32.5H393v-64H445.3z M445.3,90.7c15.2,0,27.3,14.7,27.3,31.5s-12.2,31.5-27.3,31.5H393V90.7L445.3,90.7z
		 M514.5,191.8c12.2-0.7,32-14.7,39.5-23.1c-2.8,10-2.8,42.1,0,52.3C545.6,208.7,526.7,194.2,514.5,191.8z M649.1,191.8
		c0-53.3,43.2-96.3,96.5-96c53.5,0.5,96,43.9,95.3,97.4c-0.7,52.6-43.2,94.9-96,94.9C691.9,288.3,649.1,245.3,649.1,191.8
		L649.1,191.8z M744.9,267.5c40.9,0,75.2-33.6,75.2-75.7s-34.3-75.2-75.2-75.2c-42.1,0-75.7,33.2-75.7,75.2S702.6,267.5,744.9,267.5
		z"/>
	
		<linearGradient id="SVGID_1_" gradientUnits="userSpaceOnUse" x1="-439.4055" y1="717.9695" x2="180.2346" y2="717.9695" gradientTransform="matrix(2.0244 0 0 2.0244 1862.2418 -1260.4553)">
		<stop  offset="0" style="stop-color:#000000"/>
		<stop  offset="0.399" style="stop-color:#000000"/>
		<stop  offset="0.727" style="stop-color:#000000"/>
		<stop  offset="1" style="stop-color:#000000"/>
	</linearGradient>
	<path class="st0" d="M1484.4,140.2c-2.1-91.6-66.8-140-146.3-140c-43.5,0-82.7,14.5-109.6,43c-26.6-28.3-65.9-43-109.6-43
		c-79.4,0-144.2,48.6-146.3,140.2v209.4c0,19.2,15.7,34.6,34.6,34.6h32.7c3.3,0,5.8-2.6,5.8-5.8V140.9c1.4-45.1,33.4-68.9,72.9-68.9
		s71.5,23.8,72.9,68.9v208.7c0,19.2,15.7,34.6,34.6,34.6h32.7c3.3,0,5.8-2.6,5.8-5.8V140.7c1.4-45.1,33.4-68.9,72.9-68.9
		c39.5,0,71.5,23.8,72.9,68.9v208.7c0,19.2,15.7,34.6,34.6,34.6h32.7c3.3,0,5.8-2.6,5.8-5.8L1484.4,140.2
		C1484.7,140.7,1484.4,140.4,1484.4,140.2z M2222.8,6.3h-55.6c-15.4,0-29.7,7.7-38.6,20.6l-61.5,91.1c-8.2,11.9-25.5,11.9-33.6,0
		l-61.5-91.1c-8.4-12.9-23.1-20.6-38.6-20.6h-55.6c-3.5,0-5.4,3.7-3.7,6.8L1984,175.9c7.9,11.7,7.9,27.1,0,38.8l-109.8,162.9
		c-2.1,2.8,0.2,6.8,3.7,6.8h55.6c15.4,0,29.7-7.7,38.6-20.6l61.5-91.1c8.2-11.9,25.5-11.9,33.6,0l61.5,91.1
		c8.4,12.9,23.1,20.6,38.6,20.6h55.6c3.5,0,5.4-3.7,3.7-6.8L2116.7,215c-7.9-11.7-7.9-27.1,0-38.8l109.8-162.9
		C2228.1,10.3,2226,6.3,2222.8,6.3z M1848.9,6.3h-32.7c-16.6,0-30.6,11.7-34.1,27.3C1752.9,11.2,1716.4,0,1677,0
		c-96,0-173.8,66.8-173.8,193s77.8,193,173.8,193c39.3,0,75.5-11.2,104.7-32.9c1.6,17.5,16.4,31.5,34.6,31.5h32.7
		c3.3,0,5.8-2.6,5.8-5.8V12.2C1854.5,8.9,1852.2,6.3,1848.9,6.3z M1677,314.3c-57.2,0-103.7-41.8-103.7-121s46.5-121,103.7-121
		c57.2,0,103.7,41.8,103.7,121S1734.2,314.3,1677,314.3z"/>
</g>
</svg>
