<svg id="Layer_1" data-name="Layer 1" xmlns="http://www.w3.org/2000/svg" viewBox="0 0 540 177.87"><defs><style>.cls-1{fill:#fff;}</style></defs><path class="cls-1" d="M330.76,177.87h42.89V0H330.76Zm-75.58-50.61a11.48,11.48,0,0,1-11.48,11.5h-25a11.49,11.49,0,0,1-11.49-11.5V55.5H164.36v75.34c0,30.8,19.7,47,48.83,47h42c26.83,0,42.9-19.31,42.9-47V55.5h-42.9ZM497.1,55.5v71.76a11.48,11.48,0,0,1-11.48,11.5H460.67a11.49,11.49,0,0,1-11.49-11.5V55.5h-42.9v75.34c0,30.8,19.71,47,48.84,47h42c26.82,0,42.89-19.31,42.89-47V55.5Zm-412.22,0H57.37c-9.64,0-14.5,2.6-14.5,2.6V0H0V177.87H42.87V106.09A11.5,11.5,0,0,1,54.37,94.6H79.32a11.48,11.48,0,0,1,11.49,11.49v71.78H133.7V100.52C133.7,68,112,55.5,84.88,55.5Z"/></svg>