<?xml version="1.0" encoding="UTF-8"?>
<svg xmlns="http://www.w3.org/2000/svg" viewBox="0 0 512 512">
  <rect width="512" height="512" rx="64" ry="64"/>
  <path d="M497,289.862h-.127v-.051h-13.837v-141.693l-134.432,149.284h-103.204c-4.443,0-7.997-1.625-7.997-6.068,0-3.047,1.65-5.585,4.062-6.982.127-.063.127-.089.254-.127,10.409-5.332,20.438-8.124,26.15-9.775l1.777-.508c3.427-1.016,7.743-1.904,12.186-2.92,1.523-.381,3.174-.762,4.824-1.016,27.293-6.22,64.233-18.813,64.233-62.354,0-9.648-2.412-19.422-7.997-28.181-8.886-13.964-25.642-25.262-53.062-28.562-5.332-.635-11.171-1.016-17.391-1.016-42.526,0-71.215,22.342-72.23,55.855v1.777c0,18.534,14.979,33.513,33.513,33.513s33.513-15.106,33.513-33.513-14.979-33.513-33.513-33.513c-1.016,0-2.031,0-3.047.127h-.127c-6.855.635-7.82,1.028-12.847,2.996,3.542-4.646,4.43-5.243,10.435-9.61.127,0,.127-.127.254-.127,11.425-7.363,26.658-11.425,44.557-11.425,1.904,0,3.808,0,5.585.127h1.142c3.935.508,6.601,2.983,6.601,7.045v92.604c0,4.316-3.047,7.997-6.982,9.013-.254,0-.381.127-.635.127-3.808.762-7.236,1.65-10.282,2.539l-1.65.508c-8.251,2.285-25.388,7.109-40.495,18.661-5.332,4.062-9.902,8.505-13.837,13.456-9.902,12.567-14.852,27.927-14.852,45.826h107.774l43.541-48.365h79.085v48.365h55.22v-48.327h13.71v-.038h.127v-7.667.013h0ZM427.816,289.786l-61.174-.076,61.174-69.336v69.412ZM88.246,188.994c-6.855,14.344-21.072,15.868-21.072,15.868l6.855,14.598v.127l-59.028,126.181h8.353l19.828-42.272h70.11l19.676,42.272h60.882l-89.228-191.683-16.376,34.909ZM46.888,295.752l31.418-67.102,31.342,67.102h-62.76Z" fill="#f1f1f1"/>
</svg>